<?xml version="1.0" encoding="iso-8859-1"?>
<!-- Generator: Adobe Illustrator 19.0.0, SVG Export Plug-In . SVG Version: 6.00 Build 0)  -->
<svg version="1.1" id="Layer_1" xmlns="http://www.w3.org/2000/svg" xmlns:xlink="http://www.w3.org/1999/xlink" x="0px" y="0px"
	 viewBox="0 0 458.905 458.905" style="enable-background:new 0 0 458.905 458.905;" xml:space="preserve">
<g>
	<g>
		<path d="M454.512,354.585L299.246,199.318l17.883-17.883c9.643-9.642,14.953-22.462,14.953-36.098s-5.31-26.456-14.953-36.098
			l-94.287-94.287C213.2,5.31,200.381,0,186.745,0s-26.456,5.31-36.098,14.952L14.953,150.647
			c-9.641,9.642-14.952,22.461-14.952,36.097c0,13.636,5.311,26.456,14.952,36.097l94.287,94.287
			c9.642,9.642,22.462,14.952,36.098,14.952c13.636,0,26.455-5.31,36.097-14.952l17.884-17.884l46.544,46.544
			c2.797,2.797,6.586,4.376,10.542,4.394l26.52,0.113l-4.63,17.335c-1.382,5.173,0.1,10.691,3.886,14.477l13.487,13.487
			c3.208,3.207,7.69,4.789,12.204,4.308l23.778-2.547l-3.714,21.525c-0.829,4.803,0.727,9.71,4.175,13.157l22.474,22.474
			c2.825,2.826,6.647,4.394,10.605,4.394c0.451,0,0.905-0.02,1.358-0.062l72.156-6.558c7.212-0.655,12.926-6.369,13.581-13.581
			l6.558-72.156C459.247,362.115,457.659,357.732,454.512,354.585z M233.445,159.964l-73.48,73.48
			c-2.813,2.813-6.628,4.394-10.606,4.394c-3.978,0-7.794-1.581-10.607-4.394l-46.789-46.79c-5.858-5.858-5.858-15.355,0-21.213
			l73.479-73.48c5.857-5.858,15.355-5.858,21.213,0l46.79,46.79c2.814,2.813,4.393,6.628,4.393,10.606
			C237.839,153.336,236.259,157.151,233.445,159.964z"/>
	</g>
</g>
<g>
</g>
<g>
</g>
<g>
</g>
<g>
</g>
<g>
</g>
<g>
</g>
<g>
</g>
<g>
</g>
<g>
</g>
<g>
</g>
<g>
</g>
<g>
</g>
<g>
</g>
<g>
</g>
<g>
</g>
</svg>
